# xmcd CD database file
# Generated: Tue Jan 7 19:48:01 2003 by KSCD
# 
# Track frame offsets:
#       150
#       12151
#       24435
#       36732
#       47709
#       59531
#       73388
#       87607
#       100020
#       114736
#       127274
#       138284
#       150989
#       163990
#       175871
#       188662
#       205545
#       246771
#       269015
#
# Disc length: 3734 seconds
#
# Revision: 1
# Processed by: cddbd v1.4PL0 Copyright (c) Steve Scherf et al.
# Submitted via: Kscd 1.3.3
#
DISCID=180e9413
DTITLE=George Gershwin - Greatest Hits - Disc 1
DYEAR=1900
DGENRE=
TTITLE0=Swanee
TTITLE1=Looking for a Boy from "Tip-Toes"
TTITLE2=Sweet and Low Down from "Tip-Toes"
TTITLE3=That Certain Feeling from "Tip-Toes"
TTITLE4=When Do We Dance? from "Tip-Toes"
TTITLE5=Do Do Do from "Oh, Kay!"
TTITLE6=Someone to Watch Over Me from "Oh, Kay!"
TTITLE7=Clap Yo' Hands from "Oh, Kay!"
TTITLE8=Maybe from "Oh, Kay!"
TTITLE9=Hang on to Me from "Lady, Be Good!"
TTITLE10=Fascinating Rhythm from "Lady, Be Good!"
TTITLE11=Half of It, Dearie, Blues from "Lady, Be Good!"
TTITLE12=I'd Rather Charleston
TTITLE13=My One and Only from "Funny Face"
TTITLE14='S Wonderful/Funny Face from "Funny Face"
TTITLE15=Introduction and Summertime from "Porgy and Bess"
TTITLE16=Rhapsody in Blue (Original Acoustic Recording)
TTITLE17=Three Preludes
TTITLE18=Andante from "Rhapsody in Blue"
EXTD=Mastersound\nMCMXCVIII
EXTT0=
EXTT1=
EXTT2=
EXTT3=
EXTT4=
EXTT5=
EXTT6=
EXTT7=
EXTT8=
EXTT9=
EXTT10=
EXTT11=
EXTT12=
EXTT13=
EXTT14=
EXTT15=
EXTT16=
EXTT17=
EXTT18=
PLAYORDER=
